# Blender 3.4.1
# www.blender.org
mtllib rock.mtl
o Cube
v 0.180431 -0.055367 -0.215259
v 0.148308 -0.047233 0.213706
v -0.209372 -0.044947 0.191256
v -0.137443 -0.054887 -0.166813
v 0.261796 0.184724 -0.204355
v 0.089846 0.174516 0.303118
v -0.202910 0.202963 0.221546
v -0.135327 0.204065 -0.295961
v 0.210127 -0.063546 -0.029246
v 0.014498 -0.046569 -0.156351
v 0.241118 0.075622 -0.243983
v -0.029867 -0.054927 0.246151
v 0.232099 0.063581 0.276671
v -0.217881 -0.082830 -0.023338
v -0.328567 0.058375 0.171071
v -0.236100 0.064285 -0.226357
v 0.196132 0.217285 0.009933
v 0.022097 0.193337 -0.316660
v -0.067924 0.198449 0.346354
v -0.234373 0.228622 0.002313
v -0.002112 -0.094568 -0.011695
v 0.010267 0.238286 -0.050392
v 0.236082 0.106467 0.034160
v 0.053061 0.058501 0.273444
v -0.328731 0.053937 -0.012453
v -0.038919 0.035337 -0.306931
v 0.202819 -0.057319 0.094405
v -0.063246 -0.044088 -0.140056
v 0.278210 0.129488 -0.236009
v -0.106529 -0.043626 0.231229
v 0.188310 0.103482 0.285652
v -0.171427 -0.075867 -0.107068
v -0.255272 0.144771 0.243969
v -0.193860 0.153188 -0.285935
v 0.162737 0.237256 0.180769
v -0.033953 0.197408 -0.359879
v -0.121012 0.197563 0.265930
v -0.270159 0.216980 -0.143016
v 0.209450 -0.070126 -0.127220
v 0.094835 -0.060599 -0.205008
v 0.217300 0.002996 -0.257158
v 0.049763 -0.060322 0.238568
v 0.203963 0.004671 0.262943
v -0.230101 -0.075596 0.092247
v -0.313223 -0.009971 0.154495
v -0.211610 -0.017123 -0.202768
v 0.247436 0.211346 -0.118541
v 0.155136 0.192412 -0.259587
v -0.012010 0.188559 0.359562
v -0.234241 0.224219 0.129630
v -0.094200 -0.086835 -0.007124
v 0.097130 -0.094450 -0.021858
v 0.035604 -0.069721 -0.106138
v -0.020209 -0.086897 0.119546
v -0.038557 0.240049 0.126517
v 0.013645 0.223234 -0.198509
v 0.123346 0.238442 -0.057802
v -0.119623 0.236690 -0.001902
v 0.254538 0.094119 0.202025
v 0.254467 0.088015 -0.137592
v 0.254825 0.016191 -0.012423
v 0.211228 0.181674 0.039856
v -0.207669 0.048559 0.258272
v 0.134451 0.055960 0.290090
v -0.025979 -0.000691 0.301358
v -0.012329 0.098385 0.320792
v -0.350934 0.031896 -0.144569
v -0.328251 0.060496 0.092158
v -0.308643 -0.062787 -0.050764
v -0.295566 0.181677 0.009420
v -0.154046 0.067485 -0.280147
v 0.112309 0.057826 -0.298947
v 0.031691 0.135823 -0.366092
v -0.035058 -0.019838 -0.246426
v -0.125139 -0.077292 0.118819
v -0.134539 0.233914 0.139990
v 0.224231 0.181552 0.196547
v -0.187856 0.116698 0.278822
v -0.342843 0.151274 -0.139602
v -0.149164 -0.002215 -0.224248
v -0.070892 -0.075962 -0.118996
v 0.110657 -0.088849 -0.131171
v 0.077736 -0.091657 0.106988
v 0.069602 0.242150 0.173092
v 0.161358 0.234636 -0.142979
v -0.107790 0.225983 -0.177528
v 0.270579 0.005926 0.149718
v 0.265804 -0.006551 -0.170858
v 0.285754 0.147414 -0.141053
v -0.140293 0.006100 0.269741
v 0.099900 -0.001340 0.280245
v 0.105883 0.106255 0.282444
v -0.268242 -0.047766 -0.161263
v -0.309031 -0.025324 0.097882
v -0.285818 0.171393 0.149709
v -0.051594 0.151329 -0.343001
v 0.161453 0.138037 -0.305364
v 0.103588 -0.009088 -0.239323
vn -0.0895 -0.9788 0.1840
vn -0.2165 -0.8235 0.5243
vn -0.3000 -0.8039 0.5136
vn -0.2581 -0.9470 0.1915
vn -0.0948 0.9860 0.1370
vn -0.4011 0.8990 0.1755
vn -0.3419 0.7865 0.5143
vn -0.3126 0.7242 0.6147
vn 0.7819 0.5436 0.3050
vn 0.4462 0.8535 0.2690
vn 0.3356 0.4490 0.8281
vn 0.4038 0.2759 0.8723
vn -0.3868 -0.0774 0.9189
vn -0.6475 0.3283 0.6877
vn -0.8889 0.3658 -0.2757
vn -0.4516 0.8623 -0.2291
vn -0.3514 0.7117 -0.6082
vn -0.5660 0.1468 -0.8112
vn -0.1618 -0.7048 -0.6907
vn -0.0125 -0.8761 -0.4820
vn 0.0794 -0.8042 -0.5891
vn -0.2354 -0.6253 -0.7441
vn 0.0270 -0.9298 -0.3671
vn -0.0387 -0.9987 -0.0320
vn -0.1730 -0.9848 -0.0179
vn -0.0513 -0.9566 -0.2867
vn -0.0174 -0.9821 -0.1876
vn 0.0830 -0.9963 -0.0227
vn -0.0503 -0.9967 -0.0641
vn -0.1403 -0.9470 -0.2891
vn 0.1172 -0.9831 0.1408
vn 0.1031 -0.8626 0.4953
vn -0.0828 -0.8498 0.5205
vn -0.0676 -0.9861 0.1519
vn 0.0876 0.9799 0.1794
vn -0.0494 0.9952 0.0843
vn -0.2287 0.5426 0.8083
vn 0.1392 0.3788 0.9149
vn 0.1562 0.9763 -0.1498
vn 0.0322 0.9845 -0.1723
vn -0.0197 0.9985 -0.0503
vn 0.0896 0.9958 -0.0184
vn -0.0342 0.9920 -0.1217
vn -0.3558 0.9343 0.0198
vn -0.0523 0.9982 -0.0280
vn 0.9230 -0.3582 0.1408
vn 0.9473 0.1883 0.2593
vn 0.6671 -0.0095 0.7449
vn 0.4992 -0.5374 0.6797
vn 0.9213 -0.3393 -0.1901
vn 0.9935 -0.1098 0.0314
vn 0.9857 0.1636 0.0396
vn 0.9779 -0.2079 0.0217
vn 0.9909 0.0972 0.0930
vn 0.6210 0.7835 0.0237
vn 0.5395 0.8359 0.1011
vn 0.9056 0.4140 0.0925
vn -0.2923 -0.2137 0.9322
vn -0.4326 -0.3070 0.8477
vn -0.8951 -0.0447 0.4437
vn -0.7352 -0.5557 0.3882
vn 0.1291 -0.3992 0.9077
vn 0.0984 -0.1170 0.9882
vn 0.0216 -0.1012 0.9946
vn -0.0912 -0.2097 0.9735
vn 0.1608 -0.2274 0.9604
vn -0.0765 -0.4010 0.9129
vn -0.4633 -0.7305 -0.5017
vn -0.9069 -0.2169 -0.3612
vn -0.5166 -0.2553 -0.8173
vn -0.7803 -0.6101 0.1375
vn -0.9957 0.0673 0.0633
vn -0.9962 -0.0387 0.0784
vn -0.6719 -0.7399 -0.0327
vn -0.8011 0.5609 0.2090
vn -0.8296 0.5505 0.0931
vn -0.2745 -0.0540 -0.9601
vn -0.3686 -0.4149 -0.8319
vn 0.4233 0.1641 -0.8910
vn 0.2382 -0.4711 -0.8493
vn -0.1119 -0.5562 -0.8235
vn 0.1661 -0.0005 -0.9861
vn 0.0252 -0.6385 -0.7692
vn -0.0960 -0.8640 -0.4942
vn -0.1454 -0.8894 -0.4335
vn -0.1140 -0.8284 -0.5484
vn 0.2342 -0.7943 -0.5606
vn 0.5142 -0.8515 -0.1030
vn 0.5687 -0.8214 0.0433
vn 0.5166 -0.8484 0.1156
vn 0.3168 -0.8562 0.4081
vn 0.6280 0.6950 -0.3502
vn 0.2757 0.8080 -0.5207
vn 0.1712 0.8186 -0.5482
vn -0.0507 0.6524 -0.7562
vn 0.5047 -0.4454 -0.7395
vn 0.7243 -0.2900 -0.6255
vn 0.8654 0.0094 -0.5009
vt 0.324683 0.722893
vt 0.353162 0.419686
vt 0.668575 0.311882
vt 0.336809 0.674909
vt 0.069266 0.722735
vt 0.082613 0.506661
vt 0.481603 0.323059
vt 0.116277 0.014773
vt 0.646477 0.441109
vt 0.794976 0.248970
vt 0.155630 0.402329
vt 0.905653 0.682602
vt 0.336809 0.140426
vt 0.489191 0.000000
vt 0.218381 0.752553
vt 0.339988 0.536299
vt 0.336809 0.833560
vt 0.560004 0.310321
vt 0.517650 0.412671
vt 0.693981 0.150197
vt 0.053708 0.620010
vt 0.477461 0.726331
vt 0.907061 0.133559
vt 0.223692 0.502410
vt 0.054401 0.402498
vt 0.869574 0.490922
vt 0.431026 0.176751
vt 0.683844 0.711964
vt 0.662917 0.562066
vt 0.056221 0.145884
vt 0.582099 0.007382
vt 0.273048 0.064123
vt 0.693981 0.268226
vt 0.042023 0.402498
vt 0.999879 0.706758
vt 0.258354 0.321530
vt 0.766741 0.707183
vt 0.220811 0.635843
vt 0.165692 0.199396
vt 0.539575 0.580737
vt 0.791582 0.866218
vt 0.818683 0.137473
vt 0.758928 0.488146
vt 0.565426 0.199969
vt 0.143231 0.752483
vt 0.340137 0.610197
vt 0.336920 0.785916
vt 0.512673 0.310590
vt 0.586459 0.423461
vt 0.058285 0.569867
vt 0.870663 0.174892
vt 0.448079 0.354288
vt 0.270084 0.523882
vt 0.916733 0.604517
vt 0.460672 0.063535
vt 0.672331 0.661064
vt 0.854473 0.349296
vt 0.000000 0.241327
vt 0.316518 0.068429
vt 0.563922 0.000091
vt 0.099783 0.387655
vt 0.944083 0.694636
vt 0.369246 0.000842
vt 0.674914 0.687648
vt 0.335575 0.267841
vt 0.278588 0.749240
vt 0.336833 0.476818
vt 0.320949 0.673747
vt 0.619708 0.321108
vt 0.429528 0.400325
vt 0.693822 0.237100
vt 0.060049 0.668982
vt 0.404599 0.713241
vt 0.019832 0.742597
vt 0.913859 0.076969
vt 0.152906 0.498683
vt 0.090851 0.431859
vt 0.867108 0.417288
vt 0.447322 0.276247
vt 0.672331 0.787452
vt 0.085645 0.065345
vt 0.670954 0.491413
vt 0.187902 0.035191
vt 0.639569 0.392860
vt 0.011393 0.383384
vt 0.720806 0.251159
vt 0.206316 0.378186
vt 0.844101 0.700647
vt 0.215363 0.578539
vt 0.226456 0.694739
vt 0.266533 0.646047
vt 0.559475 0.342029
vt 0.140662 0.629249
vt 0.115533 0.299946
vt 0.226136 0.127633
vt 0.116225 0.149680
vt 0.206193 0.274302
vt 0.934356 0.187628
vt 0.520455 0.684734
vt 0.529375 0.479105
vt 0.439840 0.553878
vt 0.731678 0.707183
vt 0.622627 0.581780
vt 0.006598 0.482318
vt 0.939564 0.506329
vt 0.791426 0.711743
vt 0.694133 0.143704
vt 0.855242 0.125920
vt 0.786060 0.070157
vt 0.000000 0.608449
vt 0.744126 0.821215
vt 1.000000 0.606532
vt 0.758736 0.168010
vt 0.348488 0.225548
vt 0.677773 0.459778
vt 0.821728 0.494375
vt 0.747834 0.361119
vt 0.232244 0.440506
vt 0.766456 0.640000
vt 0.491069 0.166304
vt 0.477201 0.361119
vt 0.642437 0.169965
vt 0.608937 0.072162
vt 0.293309 0.025246
vt 0.387737 0.801509
vt 0.556413 0.271543
vt 0.137636 0.563411
vt 0.155028 0.344089
vt 0.896175 0.282885
vt 0.617335 0.678426
vt 0.752056 0.707183
vt 0.949240 0.587705
vt 0.336809 0.082005
vt 0.672331 0.596657
vt 0.485748 0.254952
vt 0.384519 0.726331
vt 0.506205 0.350977
vt 0.276846 0.583529
vt 0.609960 0.361119
vt 0.288525 0.695621
vt 0.149628 0.688747
vt 0.808347 0.361119
vt 0.046020 0.277128
vt 0.133867 0.094672
vt 0.273683 0.187557
vt 0.422948 0.654063
vt 0.422729 0.459207
vt 0.744126 0.814485
vt 0.604166 0.482239
vt 0.016271 0.536299
vt 0.736508 0.092307
vt 0.012308 0.682984
vt 0.857058 0.070133
vt 0.829103 0.182611
vt 0.408067 0.318081
vt 0.291247 0.454530
vt 0.685316 0.388716
vt 0.130148 0.436240
vt 0.834672 0.401576
vt 0.853441 0.628842
vt 0.554998 0.057463
vt 0.661203 0.071636
vt 0.207942 0.000000
vt 0.579472 0.365264
vt 0.628288 0.255903
s 1
usemtl Material.001
f 75/127/1 30/50/2 3/6/3 44/76/4
f 76/128/5 50/87/6 7/11/7 37/61/8
f 77/129/9 35/57/10 6/10/11 31/51/12
f 78/132/13 37/62/8 7/12/7 33/54/14
f 79/133/15 38/63/16 8/14/17 34/55/18
f 80/135/19 28/48/20 4/7/21 46/79/22
f 81/138/23 51/89/24 14/24/25 32/53/26
f 82/140/27 52/90/28 21/38/29 53/91/30
f 83/141/31 42/72/32 12/21/33 54/93/34
f 84/143/35 55/94/36 19/34/37 49/85/38
f 85/144/39 56/95/40 22/39/41 57/96/42
f 86/145/43 38/65/16 20/36/44 58/97/45
f 87/146/46 59/99/47 13/22/48 43/73/49
f 88/147/50 60/100/51 23/40/52 61/101/53
f 89/148/54 47/80/55 17/28/56 62/102/57
f 90/150/58 63/104/59 15/25/60 45/77/61
f 91/153/62 64/108/63 24/42/64 65/109/65
f 92/154/66 49/86/38 19/33/37 66/113/67
f 93/155/68 67/114/69 16/27/70 46/79/22
f 94/159/71 68/116/72 25/43/73 69/117/74
f 95/160/75 50/88/6 20/37/44 70/119/76
f 96/161/77 71/120/78 16/27/70 34/55/18
f 97/162/79 72/122/80 26/44/81 73/123/82
f 98/165/83 40/69/84 10/18/85 74/126/86
f 51/89/24 75/127/1 44/76/4 14/24/25
f 21/38/29 54/93/34 75/127/1 51/89/24
f 54/93/34 12/21/33 30/50/2 75/127/1
f 55/94/36 76/128/5 37/61/8 19/34/37
f 22/39/41 58/97/45 76/128/5 55/94/36
f 58/97/45 20/36/44 50/87/6 76/128/5
f 59/98/47 77/129/9 31/51/12 13/23/48
f 23/40/52 62/103/57 77/130/9 59/99/47
f 62/103/57 17/29/56 35/56/10 77/130/9
f 63/105/59 78/132/13 33/54/14 15/26/60
f 24/41/64 66/111/67 78/131/13 63/106/59
f 66/112/67 19/35/37 37/62/8 78/132/13
f 67/114/69 79/133/15 34/55/18 16/27/70
f 25/43/73 70/119/76 79/134/15 67/115/69
f 70/119/76 20/37/44 38/64/16 79/134/15
f 71/120/78 80/135/19 46/79/22 16/27/70
f 26/44/81 74/126/86 80/135/19 71/120/78
f 74/125/86 10/17/85 28/47/20 80/136/19
f 28/48/20 81/137/23 32/52/26 4/7/21
f 10/18/85 53/92/30 81/137/23 28/48/20
f 53/91/30 21/38/29 51/89/24 81/138/23
f 40/69/84 82/139/27 53/92/30 10/18/85
f 1/1/87 39/66/88 82/140/27 40/68/84
f 39/66/88 9/15/89 52/90/28 82/140/27
f 52/90/28 83/141/31 54/93/34 21/38/29
f 9/15/89 27/45/90 83/141/31 52/90/28
f 27/45/90 2/5/91 42/72/32 83/141/31
f 35/57/10 84/142/35 49/86/38 6/10/11
f 17/30/56 57/96/42 84/143/35 35/58/10
f 57/96/42 22/39/41 55/94/36 84/143/35
f 47/81/55 85/144/39 57/96/42 17/30/56
f 5/8/92 48/83/93 85/144/39 47/81/55
f 48/83/93 18/32/94 56/95/40 85/144/39
f 56/95/40 86/145/43 58/97/45 22/39/41
f 18/32/94 36/59/95 86/145/43 56/95/40
f 36/59/95 8/13/17 38/65/16 86/145/43
f 27/46/90 87/146/46 43/73/49 2/4/91
f 9/16/89 61/101/53 87/146/46 27/46/90
f 61/101/53 23/40/52 59/99/47 87/146/46
f 39/67/88 88/147/50 61/101/53 9/16/89
f 1/2/87 41/70/96 88/147/50 39/67/88
f 41/70/96 11/19/97 60/100/51 88/147/50
f 60/100/51 89/149/54 62/103/57 23/40/52
f 11/19/97 29/49/98 89/149/54 60/100/51
f 29/49/98 5/9/92 47/82/55 89/149/54
f 30/50/2 90/150/58 45/77/61 3/6/3
f 12/21/33 65/110/65 90/150/58 30/50/2
f 65/109/65 24/42/64 63/107/59 90/151/58
f 42/72/32 91/152/62 65/110/65 12/21/33
f 2/5/91 43/74/49 91/152/62 42/72/32
f 43/75/49 13/23/48 64/108/63 91/153/62
f 64/108/63 92/154/66 66/113/67 24/42/64
f 13/23/48 31/51/12 92/154/66 64/108/63
f 31/51/12 6/10/11 49/86/38 92/154/66
f 32/52/26 93/155/68 46/79/22 4/7/21
f 14/24/25 69/118/74 93/156/68 32/53/26
f 69/117/74 25/43/73 67/115/69 93/157/68
f 44/76/4 94/158/71 69/118/74 14/24/25
f 3/6/3 45/77/61 94/158/71 44/76/4
f 45/78/61 15/26/60 68/116/72 94/159/71
f 68/116/72 95/160/75 70/119/76 25/43/73
f 15/26/60 33/54/14 95/160/75 68/116/72
f 33/54/14 7/12/7 50/88/6 95/160/75
f 36/60/95 96/161/77 34/55/18 8/14/17
f 18/31/94 73/123/82 96/161/77 36/60/95
f 73/123/82 26/44/81 71/120/78 96/161/77
f 48/83/93 97/163/79 73/124/82 18/32/94
f 5/9/92 29/49/98 97/164/79 48/84/93
f 29/49/98 11/19/97 72/121/80 97/164/79
f 72/122/80 98/165/83 74/126/86 26/44/81
f 11/20/97 41/71/96 98/165/83 72/122/80
f 41/71/96 1/3/87 40/69/84 98/165/83
