# Blender 3.4.1
# www.blender.org
mtllib rock1.mtl
o Cube
v 0.180431 -0.067037 -0.215259
v 0.148308 -0.054837 0.213706
v -0.209372 -0.051407 0.191256
v -0.137443 -0.066316 -0.166813
v 0.261796 0.293099 -0.204355
v 0.089846 0.277787 0.303118
v -0.202910 0.320458 0.221546
v -0.135327 0.322111 -0.295961
v 0.210127 -0.079306 -0.029246
v 0.014498 -0.053841 -0.156351
v 0.241118 0.129447 -0.243983
v -0.029867 -0.066377 0.246151
v 0.232099 0.111385 0.276671
v -0.217881 -0.108232 -0.023338
v -0.328567 0.103576 0.171071
v -0.236100 0.112441 -0.226357
v 0.196132 0.341941 0.009933
v 0.022097 0.306019 -0.316660
v -0.067924 0.313687 0.346354
v -0.234373 0.358946 0.002313
v -0.002112 -0.125839 -0.011695
v 0.010267 0.373443 -0.050392
v 0.236082 0.175714 0.034160
v 0.053061 0.103765 0.273444
v -0.328731 0.096919 -0.012453
v -0.038919 0.069019 -0.306931
v 0.202819 -0.069965 0.094405
v -0.063246 -0.050118 -0.140056
v 0.278210 0.210246 -0.236009
v -0.106529 -0.049426 0.231229
v 0.188310 0.171237 0.285652
v -0.171427 -0.097788 -0.107068
v -0.255272 0.233170 0.243969
v -0.193860 0.245795 -0.285935
v 0.162737 0.371897 0.180769
v -0.033953 0.312125 -0.359879
v -0.121012 0.312358 0.265930
v -0.270159 0.341484 -0.143016
v 0.209450 -0.089175 -0.127220
v 0.094835 -0.074884 -0.205008
v 0.217300 0.020508 -0.257158
v 0.049763 -0.074470 0.238568
v 0.203963 0.023020 0.262943
v -0.230101 -0.097381 0.092247
v -0.313223 0.001057 0.154495
v -0.211610 -0.009670 -0.202768
v 0.247436 0.333033 -0.118541
v 0.155136 0.304631 -0.259587
v -0.012010 0.298852 0.359562
v -0.234241 0.352343 0.129630
v -0.094200 -0.114240 -0.007124
v 0.097130 -0.125661 -0.021858
v 0.035604 -0.088569 -0.106138
v -0.020209 -0.114332 0.119546
v -0.038557 0.376087 0.126517
v 0.013645 0.350864 -0.198509
v 0.123346 0.373676 -0.057802
v -0.119623 0.371048 -0.001902
v 0.254538 0.157192 0.202025
v 0.254467 0.148036 -0.137592
v 0.254825 0.040301 -0.012423
v 0.211228 0.288524 0.039856
v -0.207669 0.088852 0.258272
v 0.134451 0.099953 0.290090
v -0.025979 0.014976 0.301358
v -0.012329 0.163591 0.320792
v -0.350934 0.063857 -0.144569
v -0.328251 0.106757 0.092158
v -0.308643 -0.078167 -0.050764
v -0.295566 0.288528 0.009420
v -0.154046 0.117241 -0.280147
v 0.112309 0.102753 -0.298947
v 0.031691 0.219748 -0.366092
v -0.035058 -0.013743 -0.246426
v -0.125139 -0.099925 0.118819
v -0.134539 0.366884 0.139990
v 0.224231 0.288341 0.196547
v -0.187856 0.191061 0.278822
v -0.342843 0.242925 -0.139602
v -0.149164 0.012691 -0.224248
v -0.070892 -0.097930 -0.118996
v 0.110657 -0.117261 -0.131171
v 0.077736 -0.121472 0.106988
v 0.069602 0.379239 0.173092
v 0.161358 0.367967 -0.142979
v -0.107790 0.354988 -0.177528
v 0.270579 0.024902 0.149718
v 0.265804 0.006187 -0.170858
v 0.285754 0.237135 -0.141053
v -0.140293 0.025164 0.269741
v 0.099900 0.014004 0.280245
v 0.105883 0.175396 0.282444
v -0.268242 -0.055636 -0.161263
v -0.309031 -0.021973 0.097882
v -0.285818 0.273103 0.149709
v -0.051594 0.243007 -0.343001
v 0.161453 0.223069 -0.305364
v 0.103588 0.002381 -0.239323
vn -0.1309 -0.9542 0.2691
vn -0.2743 -0.6955 0.6641
vn -0.3748 -0.6694 0.6415
vn -0.3643 -0.8912 0.2704
vn -0.1398 0.9694 0.2020
vn -0.5404 0.8075 0.2365
vn -0.4221 0.6472 0.6348
vn -0.3713 0.5735 0.7302
vn 0.8553 0.3964 0.3337
vn 0.5784 0.7375 0.3486
vn 0.3561 0.3176 0.8788
vn 0.4126 0.1879 0.8913
vn -0.3874 -0.0517 0.9205
vn -0.6678 0.2257 0.7093
vn -0.9239 0.2534 -0.2865
vn -0.5895 0.7504 -0.2990
vn -0.4146 0.5597 -0.7175
vn -0.5694 0.0985 -0.8161
vn -0.1902 -0.5522 -0.8118
vn -0.0165 -0.7712 -0.6364
vn 0.0992 -0.6697 -0.7359
vn -0.2660 -0.4711 -0.8410
vn 0.0374 -0.8599 -0.5092
vn -0.0579 -0.9972 -0.0479
vn -0.2548 -0.9666 -0.0263
vn -0.0732 -0.9096 -0.4090
vn -0.0256 -0.9610 -0.2753
vn 0.1239 -0.9917 -0.0339
vn -0.0751 -0.9926 -0.0958
vn -0.1981 -0.8912 -0.4081
vn 0.1722 -0.9631 0.2069
vn 0.1347 -0.7508 0.6467
vn -0.1070 -0.7322 0.6727
vn -0.0997 -0.9695 0.2240
vn 0.1282 0.9563 0.2626
vn -0.0736 0.9893 0.1257
vn -0.2500 0.3955 0.8838
vn 0.1451 0.2633 0.9538
vn 0.2277 0.9489 -0.2185
vn 0.0474 0.9661 -0.2537
vn -0.0296 0.9967 -0.0753
vn 0.1337 0.9906 -0.0274
vn -0.0507 0.9822 -0.1808
vn -0.4958 0.8680 0.0276
vn -0.0783 0.9961 -0.0419
vn 0.9577 -0.2478 0.1461
vn 0.9567 0.1268 0.2619
vn 0.6671 -0.0063 0.7449
vn 0.5448 -0.3910 0.7418
vn 0.9522 -0.2338 -0.1964
vn 0.9968 -0.0735 0.0315
vn 0.9931 0.1099 0.0399
vn 0.9899 -0.1403 0.0219
vn 0.9935 0.0650 0.0932
vn 0.7650 0.6434 0.0292
vn 0.6897 0.7124 0.1293
vn 0.9520 0.2901 0.0972
vn -0.2960 -0.1443 0.9442
vn -0.4444 -0.2103 0.8708
vn -0.8955 -0.0298 0.4440
vn -0.8077 -0.4070 0.4265
vn 0.1352 -0.2788 0.9508
vn 0.0988 -0.0783 0.9920
vn 0.0217 -0.0677 0.9975
vn -0.0923 -0.1415 0.9856
vn 0.1631 -0.1538 0.9745
vn -0.0802 -0.2802 0.9566
vn -0.5524 -0.5806 -0.5982
vn -0.9190 -0.1465 -0.3660
vn -0.5262 -0.1734 -0.8325
vn -0.8761 -0.4567 0.1543
vn -0.9970 0.0449 0.0634
vn -0.9966 -0.0258 0.0785
vn -0.8055 -0.5913 -0.0392
vn -0.8818 0.4116 0.2301
vn -0.9097 0.4024 0.1021
vn -0.2747 -0.0360 -0.9608
vn -0.3876 -0.2908 -0.8748
vn 0.4265 0.1102 -0.8978
vn 0.2544 -0.3354 -0.9071
vn -0.1229 -0.4074 -0.9049
vn 0.1661 -0.0003 -0.9861
vn 0.0287 -0.4840 -0.8746
vn -0.1255 -0.7529 -0.6460
vn -0.1942 -0.7919 -0.5789
vn -0.1449 -0.7021 -0.6972
vn 0.2906 -0.6570 -0.6956
vn 0.6654 -0.7345 -0.1332
vn 0.7193 -0.6926 0.0547
vn 0.6668 -0.7301 0.1493
vn 0.4115 -0.7414 0.5301
vn 0.7342 0.5416 -0.4094
vn 0.3454 0.6747 -0.6523
vn 0.2161 0.6889 -0.6919
vn -0.0581 0.4977 -0.8654
vn 0.5350 -0.3148 -0.7840
vn 0.7419 -0.1980 -0.6406
vn 0.8655 0.0063 -0.5010
vt 0.324683 0.722893
vt 0.353162 0.419686
vt 0.668575 0.311882
vt 0.336809 0.674909
vt 0.069266 0.722735
vt 0.082613 0.506661
vt 0.481603 0.323059
vt 0.116277 0.014773
vt 0.646477 0.441109
vt 0.794976 0.248970
vt 0.155630 0.402329
vt 0.905653 0.682602
vt 0.336809 0.140426
vt 0.489191 0.000000
vt 0.218381 0.752553
vt 0.339988 0.536299
vt 0.336809 0.833560
vt 0.560004 0.310321
vt 0.517650 0.412671
vt 0.693981 0.150197
vt 0.053708 0.620010
vt 0.477461 0.726331
vt 0.907061 0.133559
vt 0.223692 0.502410
vt 0.054401 0.402498
vt 0.869574 0.490922
vt 0.431026 0.176751
vt 0.683844 0.711964
vt 0.662917 0.562066
vt 0.056221 0.145884
vt 0.582099 0.007382
vt 0.273048 0.064123
vt 0.693981 0.268226
vt 0.042023 0.402498
vt 0.999879 0.706758
vt 0.258354 0.321530
vt 0.766741 0.707183
vt 0.220811 0.635843
vt 0.165692 0.199396
vt 0.539575 0.580737
vt 0.791582 0.866218
vt 0.818683 0.137473
vt 0.758928 0.488146
vt 0.565426 0.199969
vt 0.143231 0.752483
vt 0.340137 0.610197
vt 0.336920 0.785916
vt 0.512673 0.310590
vt 0.586459 0.423461
vt 0.058285 0.569867
vt 0.870663 0.174892
vt 0.448079 0.354288
vt 0.270084 0.523882
vt 0.916733 0.604517
vt 0.460672 0.063535
vt 0.672331 0.661064
vt 0.854473 0.349296
vt 0.000000 0.241327
vt 0.316518 0.068429
vt 0.563922 0.000091
vt 0.099783 0.387655
vt 0.944083 0.694636
vt 0.369246 0.000842
vt 0.674914 0.687648
vt 0.335575 0.267841
vt 0.278588 0.749240
vt 0.336833 0.476818
vt 0.320949 0.673747
vt 0.619708 0.321108
vt 0.429528 0.400325
vt 0.693822 0.237100
vt 0.060049 0.668982
vt 0.404599 0.713241
vt 0.019832 0.742597
vt 0.913859 0.076969
vt 0.152906 0.498683
vt 0.090851 0.431859
vt 0.867108 0.417288
vt 0.447322 0.276247
vt 0.672331 0.787452
vt 0.085645 0.065345
vt 0.670954 0.491413
vt 0.187902 0.035191
vt 0.639569 0.392860
vt 0.011393 0.383384
vt 0.720806 0.251159
vt 0.206316 0.378186
vt 0.844101 0.700647
vt 0.215363 0.578539
vt 0.226456 0.694739
vt 0.266533 0.646047
vt 0.559475 0.342029
vt 0.140662 0.629249
vt 0.115533 0.299946
vt 0.226136 0.127633
vt 0.116225 0.149680
vt 0.206193 0.274302
vt 0.934356 0.187628
vt 0.520455 0.684734
vt 0.529375 0.479105
vt 0.439840 0.553878
vt 0.731678 0.707183
vt 0.622627 0.581780
vt 0.006598 0.482318
vt 0.939564 0.506329
vt 0.791426 0.711743
vt 0.694133 0.143704
vt 0.855242 0.125920
vt 0.786060 0.070157
vt 0.000000 0.608449
vt 0.744126 0.821215
vt 1.000000 0.606532
vt 0.758736 0.168010
vt 0.348488 0.225548
vt 0.677773 0.459778
vt 0.821728 0.494375
vt 0.747834 0.361119
vt 0.232244 0.440506
vt 0.766456 0.640000
vt 0.491069 0.166304
vt 0.477201 0.361119
vt 0.642437 0.169965
vt 0.608937 0.072162
vt 0.293309 0.025246
vt 0.387737 0.801509
vt 0.556413 0.271543
vt 0.137636 0.563411
vt 0.155028 0.344089
vt 0.896175 0.282885
vt 0.617335 0.678426
vt 0.752056 0.707183
vt 0.949240 0.587705
vt 0.336809 0.082005
vt 0.672331 0.596657
vt 0.485748 0.254952
vt 0.384519 0.726331
vt 0.506205 0.350977
vt 0.276846 0.583529
vt 0.609960 0.361119
vt 0.288525 0.695621
vt 0.149628 0.688747
vt 0.808347 0.361119
vt 0.046020 0.277128
vt 0.133867 0.094672
vt 0.273683 0.187557
vt 0.422948 0.654063
vt 0.422729 0.459207
vt 0.744126 0.814485
vt 0.604166 0.482239
vt 0.016271 0.536299
vt 0.736508 0.092307
vt 0.012308 0.682984
vt 0.857058 0.070133
vt 0.829103 0.182611
vt 0.408067 0.318081
vt 0.291247 0.454530
vt 0.685316 0.388716
vt 0.130148 0.436240
vt 0.834672 0.401576
vt 0.853441 0.628842
vt 0.554998 0.057463
vt 0.661203 0.071636
vt 0.207942 0.000000
vt 0.579472 0.365264
vt 0.628288 0.255903
s 1
usemtl Material.001
f 75/127/1 30/50/2 3/6/3 44/76/4
f 76/128/5 50/87/6 7/11/7 37/61/8
f 77/129/9 35/57/10 6/10/11 31/51/12
f 78/132/13 37/62/8 7/12/7 33/54/14
f 79/133/15 38/63/16 8/14/17 34/55/18
f 80/135/19 28/48/20 4/7/21 46/79/22
f 81/138/23 51/89/24 14/24/25 32/53/26
f 82/140/27 52/90/28 21/38/29 53/91/30
f 83/141/31 42/72/32 12/21/33 54/93/34
f 84/143/35 55/94/36 19/34/37 49/85/38
f 85/144/39 56/95/40 22/39/41 57/96/42
f 86/145/43 38/65/16 20/36/44 58/97/45
f 87/146/46 59/99/47 13/22/48 43/73/49
f 88/147/50 60/100/51 23/40/52 61/101/53
f 89/148/54 47/80/55 17/28/56 62/102/57
f 90/150/58 63/104/59 15/25/60 45/77/61
f 91/153/62 64/108/63 24/42/64 65/109/65
f 92/154/66 49/86/38 19/33/37 66/113/67
f 93/155/68 67/114/69 16/27/70 46/79/22
f 94/159/71 68/116/72 25/43/73 69/117/74
f 95/160/75 50/88/6 20/37/44 70/119/76
f 96/161/77 71/120/78 16/27/70 34/55/18
f 97/162/79 72/122/80 26/44/81 73/123/82
f 98/165/83 40/69/84 10/18/85 74/126/86
f 51/89/24 75/127/1 44/76/4 14/24/25
f 21/38/29 54/93/34 75/127/1 51/89/24
f 54/93/34 12/21/33 30/50/2 75/127/1
f 55/94/36 76/128/5 37/61/8 19/34/37
f 22/39/41 58/97/45 76/128/5 55/94/36
f 58/97/45 20/36/44 50/87/6 76/128/5
f 59/98/47 77/129/9 31/51/12 13/23/48
f 23/40/52 62/103/57 77/130/9 59/99/47
f 62/103/57 17/29/56 35/56/10 77/130/9
f 63/105/59 78/132/13 33/54/14 15/26/60
f 24/41/64 66/111/67 78/131/13 63/106/59
f 66/112/67 19/35/37 37/62/8 78/132/13
f 67/114/69 79/133/15 34/55/18 16/27/70
f 25/43/73 70/119/76 79/134/15 67/115/69
f 70/119/76 20/37/44 38/64/16 79/134/15
f 71/120/78 80/135/19 46/79/22 16/27/70
f 26/44/81 74/126/86 80/135/19 71/120/78
f 74/125/86 10/17/85 28/47/20 80/136/19
f 28/48/20 81/137/23 32/52/26 4/7/21
f 10/18/85 53/92/30 81/137/23 28/48/20
f 53/91/30 21/38/29 51/89/24 81/138/23
f 40/69/84 82/139/27 53/92/30 10/18/85
f 1/1/87 39/66/88 82/140/27 40/68/84
f 39/66/88 9/15/89 52/90/28 82/140/27
f 52/90/28 83/141/31 54/93/34 21/38/29
f 9/15/89 27/45/90 83/141/31 52/90/28
f 27/45/90 2/5/91 42/72/32 83/141/31
f 35/57/10 84/142/35 49/86/38 6/10/11
f 17/30/56 57/96/42 84/143/35 35/58/10
f 57/96/42 22/39/41 55/94/36 84/143/35
f 47/81/55 85/144/39 57/96/42 17/30/56
f 5/8/92 48/83/93 85/144/39 47/81/55
f 48/83/93 18/32/94 56/95/40 85/144/39
f 56/95/40 86/145/43 58/97/45 22/39/41
f 18/32/94 36/59/95 86/145/43 56/95/40
f 36/59/95 8/13/17 38/65/16 86/145/43
f 27/46/90 87/146/46 43/73/49 2/4/91
f 9/16/89 61/101/53 87/146/46 27/46/90
f 61/101/53 23/40/52 59/99/47 87/146/46
f 39/67/88 88/147/50 61/101/53 9/16/89
f 1/2/87 41/70/96 88/147/50 39/67/88
f 41/70/96 11/19/97 60/100/51 88/147/50
f 60/100/51 89/149/54 62/103/57 23/40/52
f 11/19/97 29/49/98 89/149/54 60/100/51
f 29/49/98 5/9/92 47/82/55 89/149/54
f 30/50/2 90/150/58 45/77/61 3/6/3
f 12/21/33 65/110/65 90/150/58 30/50/2
f 65/109/65 24/42/64 63/107/59 90/151/58
f 42/72/32 91/152/62 65/110/65 12/21/33
f 2/5/91 43/74/49 91/152/62 42/72/32
f 43/75/49 13/23/48 64/108/63 91/153/62
f 64/108/63 92/154/66 66/113/67 24/42/64
f 13/23/48 31/51/12 92/154/66 64/108/63
f 31/51/12 6/10/11 49/86/38 92/154/66
f 32/52/26 93/155/68 46/79/22 4/7/21
f 14/24/25 69/118/74 93/156/68 32/53/26
f 69/117/74 25/43/73 67/115/69 93/157/68
f 44/76/4 94/158/71 69/118/74 14/24/25
f 3/6/3 45/77/61 94/158/71 44/76/4
f 45/78/61 15/26/60 68/116/72 94/159/71
f 68/116/72 95/160/75 70/119/76 25/43/73
f 15/26/60 33/54/14 95/160/75 68/116/72
f 33/54/14 7/12/7 50/88/6 95/160/75
f 36/60/95 96/161/77 34/55/18 8/14/17
f 18/31/94 73/123/82 96/161/77 36/60/95
f 73/123/82 26/44/81 71/120/78 96/161/77
f 48/83/93 97/163/79 73/124/82 18/32/94
f 5/9/92 29/49/98 97/164/79 48/84/93
f 29/49/98 11/19/97 72/121/80 97/164/79
f 72/122/80 98/165/83 74/126/86 26/44/81
f 11/20/97 41/71/96 98/165/83 72/122/80
f 41/71/96 1/3/87 40/69/84 98/165/83
